<svg xmlns="http://www.w3.org/2000/svg" viewBox="0 0 1916.06 1918.87"><defs><style>.cls-1{fill:#f29201;}</style></defs><g id="Livello_2" data-name="Livello 2"><g id="Livello_1-2" data-name="Livello 1"><path class="cls-1" d="M770.83,487.83c-37.23-150.78-71.92-291.24-108-437.1,196.35-67,389.34-68.09,590.48-.55-35.84,144.92-71.13,287.68-107.87,436.28C1019.61,441.6,896.74,438.29,770.83,487.83Z"/><path class="cls-1" d="M1253.17,1869.17c-199.1,66.57-392.36,65.95-590.86,0,35.88-144.4,71-285.76,108.36-436.09,124.88,43.84,247.23,48.08,374-1.95C1181.4,1579.34,1216.38,1720.58,1253.17,1869.17Z"/><path class="cls-1" d="M678.28,684.33H865.61L958,1008c33.91-119,62.53-219.43,92.09-323.19h187v512.84H1116.53V861.92l-13.77-2.4c-27.22,86.07-54.43,172.14-82,259.44H895.37L814,861.29l-12.35,1.38v334.52H678.28Z"/><path class="cls-1" d="M49.94,663.54,485.29,772c-44.85,126.9-47.41,249.59,1.88,375.55L50.58,1254.74C-16.91,1055.52-16.59,863.53,49.94,663.54Z"/><path class="cls-1" d="M200.65,1335.42l338.5-83.13c44,43.72,81.79,81.17,125.61,124.66C638.68,1485.19,612,1596.07,583,1716.5,413.05,1630.49,292.51,1506.48,200.65,1335.42Z"/><path class="cls-1" d="M582.65,201.8l83.48,337.81L530.91,664.84,201.77,583.57C289.26,414.12,412.32,291.39,582.65,201.8Z"/><path class="cls-1" d="M1866.11,663.54,1430.77,772c44.84,126.9,47.41,249.59-1.88,375.55l436.58,107.16C1933,1055.52,1932.65,863.53,1866.11,663.54Z"/><path class="cls-1" d="M1715.41,1335.42l-338.5-83.13L1251.3,1377c26.07,108.24,52.78,219.12,81.79,339.55C1503,1630.49,1623.54,1506.48,1715.41,1335.42Z"/><path class="cls-1" d="M1333.41,201.8l-83.48,337.81,135.22,125.23,329.13-81.27C1626.79,414.12,1503.74,291.39,1333.41,201.8Z"/></g></g></svg>